<svg id="visual" viewBox="0 0 1280 720" width="1280" height="720" xmlns="http://www.w3.org/2000/svg" xmlns:xlink="http://www.w3.org/1999/xlink" version="1.1"><rect x="0" y="0" width="1280" height="720" fill="#1d1a39"></rect><defs><linearGradient id="grad1_0" x1="43.8%" y1="0%" x2="100%" y2="100%"><stop offset="14.444444444444446%" stop-color="#ae4454" stop-opacity="1"></stop><stop offset="85.55555555555554%" stop-color="#ae4454" stop-opacity="1"></stop></linearGradient></defs><defs><linearGradient id="grad1_1" x1="43.8%" y1="0%" x2="100%" y2="100%"><stop offset="14.444444444444446%" stop-color="#ae4454" stop-opacity="1"></stop><stop offset="85.55555555555554%" stop-color="#9b3b57" stop-opacity="1"></stop></linearGradient></defs><defs><linearGradient id="grad1_2" x1="43.8%" y1="0%" x2="100%" y2="100%"><stop offset="14.444444444444446%" stop-color="#873459" stop-opacity="1"></stop><stop offset="85.55555555555554%" stop-color="#9b3b57" stop-opacity="1"></stop></linearGradient></defs><defs><linearGradient id="grad1_3" x1="43.8%" y1="0%" x2="100%" y2="100%"><stop offset="14.444444444444446%" stop-color="#873459" stop-opacity="1"></stop><stop offset="85.55555555555554%" stop-color="#712e57" stop-opacity="1"></stop></linearGradient></defs><defs><linearGradient id="grad1_4" x1="43.8%" y1="0%" x2="100%" y2="100%"><stop offset="14.444444444444446%" stop-color="#5b2953" stop-opacity="1"></stop><stop offset="85.55555555555554%" stop-color="#712e57" stop-opacity="1"></stop></linearGradient></defs><defs><linearGradient id="grad1_5" x1="43.8%" y1="0%" x2="100%" y2="100%"><stop offset="14.444444444444446%" stop-color="#5b2953" stop-opacity="1"></stop><stop offset="85.55555555555554%" stop-color="#46254d" stop-opacity="1"></stop></linearGradient></defs><defs><linearGradient id="grad1_6" x1="43.8%" y1="0%" x2="100%" y2="100%"><stop offset="14.444444444444446%" stop-color="#312044" stop-opacity="1"></stop><stop offset="85.55555555555554%" stop-color="#46254d" stop-opacity="1"></stop></linearGradient></defs><defs><linearGradient id="grad1_7" x1="43.8%" y1="0%" x2="100%" y2="100%"><stop offset="14.444444444444446%" stop-color="#312044" stop-opacity="1"></stop><stop offset="85.55555555555554%" stop-color="#1d1a39" stop-opacity="1"></stop></linearGradient></defs><defs><linearGradient id="grad2_0" x1="0%" y1="0%" x2="56.3%" y2="100%"><stop offset="14.444444444444446%" stop-color="#ae4454" stop-opacity="1"></stop><stop offset="85.55555555555554%" stop-color="#ae4454" stop-opacity="1"></stop></linearGradient></defs><defs><linearGradient id="grad2_1" x1="0%" y1="0%" x2="56.3%" y2="100%"><stop offset="14.444444444444446%" stop-color="#9b3b57" stop-opacity="1"></stop><stop offset="85.55555555555554%" stop-color="#ae4454" stop-opacity="1"></stop></linearGradient></defs><defs><linearGradient id="grad2_2" x1="0%" y1="0%" x2="56.3%" y2="100%"><stop offset="14.444444444444446%" stop-color="#9b3b57" stop-opacity="1"></stop><stop offset="85.55555555555554%" stop-color="#873459" stop-opacity="1"></stop></linearGradient></defs><defs><linearGradient id="grad2_3" x1="0%" y1="0%" x2="56.3%" y2="100%"><stop offset="14.444444444444446%" stop-color="#712e57" stop-opacity="1"></stop><stop offset="85.55555555555554%" stop-color="#873459" stop-opacity="1"></stop></linearGradient></defs><defs><linearGradient id="grad2_4" x1="0%" y1="0%" x2="56.3%" y2="100%"><stop offset="14.444444444444446%" stop-color="#712e57" stop-opacity="1"></stop><stop offset="85.55555555555554%" stop-color="#5b2953" stop-opacity="1"></stop></linearGradient></defs><defs><linearGradient id="grad2_5" x1="0%" y1="0%" x2="56.3%" y2="100%"><stop offset="14.444444444444446%" stop-color="#46254d" stop-opacity="1"></stop><stop offset="85.55555555555554%" stop-color="#5b2953" stop-opacity="1"></stop></linearGradient></defs><defs><linearGradient id="grad2_6" x1="0%" y1="0%" x2="56.3%" y2="100%"><stop offset="14.444444444444446%" stop-color="#46254d" stop-opacity="1"></stop><stop offset="85.55555555555554%" stop-color="#312044" stop-opacity="1"></stop></linearGradient></defs><defs><linearGradient id="grad2_7" x1="0%" y1="0%" x2="56.3%" y2="100%"><stop offset="14.444444444444446%" stop-color="#1d1a39" stop-opacity="1"></stop><stop offset="85.55555555555554%" stop-color="#312044" stop-opacity="1"></stop></linearGradient></defs><g transform="translate(1280, 0)"><path d="M0 648C-32.1 567.3 -64.3 486.6 -132 492.6C-199.7 498.6 -303 591.4 -324 561.2C-345 531 -283.7 377.8 -330.9 330.9C-378.2 284 -534 343.4 -552.5 319C-571 294.6 -452.3 186.4 -445.3 119.3C-438.3 52.2 -543.2 26.1 -648 0L0 0Z" fill="#271d3f"></path><path d="M0 567C-28.1 496.4 -56.2 425.8 -115.5 431C-174.8 436.3 -265.1 517.5 -283.5 491C-301.9 464.6 -248.2 330.6 -289.6 289.6C-330.9 248.5 -467.3 300.5 -483.5 279.1C-499.7 257.8 -395.7 163.1 -389.6 104.4C-383.5 45.7 -475.3 22.8 -567 0L0 0Z" fill="#3b2249"></path><path d="M0 486C-24.1 425.5 -48.2 364.9 -99 369.5C-149.8 374 -227.3 443.5 -243 420.9C-258.7 398.2 -212.8 283.4 -248.2 248.2C-283.6 213 -400.5 257.5 -414.4 239.3C-428.3 221 -339.2 139.8 -334 89.5C-328.7 39.1 -407.4 19.6 -486 0L0 0Z" fill="#502750"></path><path d="M0 405C-20.1 354.6 -40.2 304.1 -82.5 307.9C-124.8 311.7 -189.4 369.6 -202.5 350.7C-215.6 331.9 -177.3 236.1 -206.8 206.8C-236.4 177.5 -333.8 214.6 -345.3 199.4C-356.9 184.1 -282.7 116.5 -278.3 74.6C-274 32.6 -339.5 16.3 -405 0L0 0Z" fill="#662c56"></path><path d="M0 324C-16.1 283.6 -32.1 243.3 -66 246.3C-99.9 249.3 -151.5 295.7 -162 280.6C-172.5 265.5 -141.8 188.9 -165.5 165.5C-189.1 142 -267 171.7 -276.3 159.5C-285.5 147.3 -226.1 93.2 -222.6 59.7C-219.2 26.1 -271.6 13 -324 0L0 0Z" fill="#7c3158"></path><path d="M0 243C-12.1 212.7 -24.1 182.5 -49.5 184.7C-74.9 187 -113.6 221.8 -121.5 210.4C-129.4 199.1 -106.4 141.7 -124.1 124.1C-141.8 106.5 -200.3 128.8 -207.2 119.6C-214.1 110.5 -169.6 69.9 -167 44.7C-164.4 19.6 -203.7 9.8 -243 0L0 0Z" fill="#913758"></path><path d="M0 162C-8 141.8 -16.1 121.6 -33 123.2C-49.9 124.7 -75.8 147.8 -81 140.3C-86.2 132.7 -70.9 94.5 -82.7 82.7C-94.5 71 -133.5 85.8 -138.1 79.8C-142.8 73.7 -113.1 46.6 -111.3 29.8C-109.6 13 -135.8 6.5 -162 0L0 0Z" fill="#a53f56"></path><path d="M0 81C-4 70.9 -8 60.8 -16.5 61.6C-25 62.3 -37.9 73.9 -40.5 70.1C-43.1 66.4 -35.5 47.2 -41.4 41.4C-47.3 35.5 -66.8 42.9 -69.1 39.9C-71.4 36.8 -56.5 23.3 -55.7 14.9C-54.8 6.5 -67.9 3.3 -81 0L0 0Z" fill="#ae4454"></path></g><g transform="translate(0, 720)"><path d="M0 -648C30.9 -537.1 61.7 -426.1 109.2 -407.6C156.7 -389.1 220.8 -463.1 275.5 -477.2C330.2 -491.2 375.5 -445.4 398.1 -398.1C420.7 -350.8 420.6 -302.2 462.5 -267C504.3 -231.8 588 -210 625.9 -167.7C663.8 -125.5 655.9 -62.7 648 0L0 0Z" fill="#271d3f"></path><path d="M0 -567C27 -469.9 54 -372.8 95.6 -356.7C137.1 -340.5 193.2 -405.2 241.1 -417.5C288.9 -429.8 328.6 -389.7 348.3 -348.3C368.1 -307 368.1 -264.4 404.7 -233.6C441.2 -202.8 514.5 -183.7 547.7 -146.8C580.8 -109.8 573.9 -54.9 567 0L0 0Z" fill="#3b2249"></path><path d="M0 -486C23.2 -402.8 46.3 -319.6 81.9 -305.7C117.5 -291.9 165.6 -347.3 206.6 -357.9C247.6 -368.4 281.6 -334 298.6 -298.6C315.5 -263.1 315.5 -226.7 346.8 -200.3C378.2 -173.8 441 -157.5 469.4 -125.8C497.9 -94.1 491.9 -47 486 0L0 0Z" fill="#502750"></path><path d="M0 -405C19.3 -335.7 38.6 -266.3 68.3 -254.8C97.9 -243.2 138 -289.5 172.2 -298.2C206.4 -307 234.7 -278.3 248.8 -248.8C262.9 -219.3 262.9 -188.9 289 -166.9C315.2 -144.9 367.5 -131.2 391.2 -104.8C414.9 -78.4 409.9 -39.2 405 0L0 0Z" fill="#662c56"></path><path d="M0 -324C15.4 -268.5 30.9 -213.1 54.6 -203.8C78.4 -194.6 110.4 -231.6 137.7 -238.6C165.1 -245.6 187.7 -222.7 199.1 -199.1C210.4 -175.4 210.3 -151.1 231.2 -133.5C252.1 -115.9 294 -105 313 -83.9C331.9 -62.7 328 -31.4 324 0L0 0Z" fill="#7c3158"></path><path d="M0 -243C11.6 -201.4 23.2 -159.8 41 -152.9C58.8 -145.9 82.8 -173.7 103.3 -178.9C123.8 -184.2 140.8 -167 149.3 -149.3C157.8 -131.6 157.7 -113.3 173.4 -100.1C189.1 -86.9 220.5 -78.7 234.7 -62.9C248.9 -47 246 -23.5 243 0L0 0Z" fill="#913758"></path><path d="M0 -162C7.7 -134.3 15.4 -106.5 27.3 -101.9C39.2 -97.3 55.2 -115.8 68.9 -119.3C82.5 -122.8 93.9 -111.3 99.5 -99.5C105.2 -87.7 105.2 -75.6 115.6 -66.8C126.1 -57.9 147 -52.5 156.5 -41.9C166 -31.4 164 -15.7 162 0L0 0Z" fill="#a53f56"></path><path d="M0 -81C3.9 -67.1 7.7 -53.3 13.7 -51C19.6 -48.6 27.6 -57.9 34.4 -59.6C41.3 -61.4 46.9 -55.7 49.8 -49.8C52.6 -43.9 52.6 -37.8 57.8 -33.4C63 -29 73.5 -26.2 78.2 -21C83 -15.7 82 -7.8 81 0L0 0Z" fill="#ae4454"></path></g></svg>